<?xml version="1.0" encoding="UTF-8" standalone="no"?>
<svg
   xmlns:dc="http://purl.org/dc/elements/1.1/"
   xmlns:cc="http://creativecommons.org/ns#"
   xmlns:rdf="http://www.w3.org/1999/02/22-rdf-syntax-ns#"
   xmlns:svg="http://www.w3.org/2000/svg"
   xmlns="http://www.w3.org/2000/svg"
   xmlns:sodipodi="http://sodipodi.sourceforge.net/DTD/sodipodi-0.dtd"
   xmlns:inkscape="http://www.inkscape.org/namespaces/inkscape"
   inkscape:version="1.0 (4035a4fb49, 2020-05-01)"
   sodipodi:docname="ethereum.svg"
   id="svg58"
   version="1.1"
   viewBox="0 0 320 512"
   role="img"
   class="svg-inline--fa fa-ethereum fa-w-10"
   data-icon="ethereum"
   data-prefix="fab"
   focusable="false"
   aria-hidden="true">
  <metadata
     id="metadata64">
    <rdf:RDF>
      <cc:Work
         rdf:about="">
        <dc:format>image/svg+xml</dc:format>
        <dc:type
           rdf:resource="http://purl.org/dc/dcmitype/StillImage" />
      </cc:Work>
    </rdf:RDF>
  </metadata>
  <defs
     id="defs62" />
  <sodipodi:namedview
     inkscape:current-layer="svg58"
     inkscape:window-maximized="0"
     inkscape:window-y="64"
     inkscape:window-x="29"
     inkscape:cy="255.3486"
     inkscape:cx="34.605598"
     inkscape:zoom="1.5351562"
     showgrid="false"
     id="namedview60"
     inkscape:window-height="983"
     inkscape:window-width="1858"
     inkscape:pageshadow="2"
     inkscape:pageopacity="0"
     guidetolerance="10"
     gridtolerance="10"
     objecttolerance="10"
     borderopacity="1"
     bordercolor="#666666"
     pagecolor="#ffffff" />
  <path
     id="path56"
     d="M311.9 260.8L160 353.6 8 260.8 160 0l151.9 260.8zM160 383.4L8 290.6 160 512l152-221.4-152 92.8z"
     fill="currentColor" />
  <path
     id="path66"
     d="M 84.437659,306.98403 C 42.878372,281.58997 8.9585117,260.50646 9.0601929,260.13178 9.353806,259.04987 159.6663,1.302799 160.00363,1.302799 c 0.29962,0 150.77916,258.122841 151.00465,259.023561 0.064,0.25573 -31.39505,19.71721 -69.90904,43.24773 -38.514,23.53052 -72.51705,44.31235 -75.56234,46.18186 L 160,353.15505 Z"
     style="fill:none;stroke-width:0.651399" />
  <path
     id="path68"
     d="M 84.437659,306.98403 C 42.878372,281.58997 8.9585117,260.50646 9.0601929,260.13178 9.353806,259.04987 159.6663,1.302799 160.00363,1.302799 c 0.29962,0 150.77916,258.122841 151.00465,259.023561 0.064,0.25573 -31.39505,19.71721 -69.90904,43.24773 -38.514,23.53052 -72.51705,44.31235 -75.56234,46.18186 L 160,353.15505 Z"
     style="fill:none;stroke-width:0.651399" />
  <path
     id="path895"
     d="M 85.344094,307.57809 C 44.820746,282.79284 10.98726,262.05382 10.158565,261.49138 L 8.651849,260.46877 84.082093,131.04863 C 125.56873,59.86756 159.73284,1.6284987 160.00234,1.6284987 c 0.86542,0 151.23246,258.7566813 150.67867,259.2929413 -1.34949,1.30676 -150.09528,91.80605 -150.82786,91.76606 -0.45664,-0.0249 -33.98571,-20.32417 -74.509056,-45.10941 z"
     style="fill:#3a405f;stroke-width:0.651399;fill-opacity:1" />
  <path
     id="path897"
     d="M 84.962882,402.06752 C 43.871603,342.17113 10.35471,293.06174 10.480897,292.93556 c 0.126187,-0.12619 33.683685,20.19653 74.572217,45.16159 45.577686,27.8281 74.774706,45.27644 75.459086,45.09489 0.61397,-0.16287 34.34511,-20.58378 74.95811,-45.3798 40.61299,-24.79602 73.94001,-44.98547 74.06002,-44.86546 0.26899,0.26899 -149.07686,218.02328 -149.53033,218.02328 -0.17913,0 -33.94583,-49.00614 -75.037118,-108.90254 z"
     style="fill:#3a405f;fill-opacity:1;stroke-width:0.651399" />
</svg>
